<?xml version="1.0" standalone="no"?>
<!DOCTYPE svg PUBLIC "-//W3C//DTD SVG 20010904//EN"
 "http://www.w3.org/TR/2001/REC-SVG-20010904/DTD/svg10.dtd">
<svg version="1.0" xmlns="http://www.w3.org/2000/svg"
 width="200.000000pt" height="144.000000pt" viewBox="0 0 200.000000 144.000000"
 preserveAspectRatio="xMidYMid meet">

<g transform="translate(0.000000,144.000000) scale(0.100000,-0.100000)"
fill="#000000" stroke="none">
<path d="M873 1361 c4 -17 1 -18 -26 -10 -16 5 -33 6 -37 4 -4 -2 -10 -54 -13
-114 -5 -92 -10 -114 -27 -131 -30 -30 -30 -99 -1 -140 10 -14 28 -43 39 -65
11 -22 32 -51 46 -64 30 -29 33 -51 9 -80 -16 -18 -23 -19 -60 -11 -46 11
-126 0 -170 -23 -23 -13 -30 -12 -67 9 -53 30 -105 30 -180 -1 -33 -13 -62
-23 -63 -21 -8 7 50 213 73 262 35 75 50 84 158 99 52 7 100 16 106 20 15 10
12 42 -5 49 -14 5 -13 10 6 35 28 37 18 53 -48 75 -77 26 -102 22 -144 -26
-21 -24 -84 -94 -141 -156 -128 -141 -157 -182 -219 -306 -60 -122 -62 -151
-13 -206 70 -77 217 -121 404 -121 58 0 140 -6 182 -15 116 -24 116 -24 152
81 39 114 59 128 183 123 110 -4 138 -24 137 -94 -1 -27 -4 -59 -9 -71 -6 -18
-4 -23 11 -23 10 0 27 -9 38 -19 20 -18 25 -19 106 -4 47 8 130 14 185 13 234
-3 430 76 450 183 6 32 1 51 -38 132 -66 135 -102 187 -213 305 -54 59 -115
127 -134 152 -42 56 -70 71 -119 62 -49 -9 -111 -41 -111 -58 0 -7 9 -25 21
-40 17 -21 18 -26 5 -26 -19 0 -21 -33 -3 -47 6 -6 52 -15 101 -22 49 -7 98
-16 107 -22 10 -5 29 -34 44 -64 34 -72 87 -275 72 -275 -6 0 -31 10 -56 22
-58 29 -124 29 -179 0 l-40 -21 -54 21 c-43 16 -67 19 -124 14 -48 -4 -74 -2
-82 6 -20 20 -13 58 17 97 17 21 35 50 42 67 7 16 22 39 33 52 28 32 28 118 0
141 -16 14 -19 27 -16 91 3 65 1 78 -18 98 -11 12 -31 22 -43 22 -12 0 -32 7
-44 15 -30 21 -129 45 -186 45 -44 0 -49 -2 -44 -19z"/>
<path d="M922 548 c-5 -7 -28 -71 -51 -142 -46 -149 -45 -156 30 -156 l49 0 0
-95 c0 -87 2 -95 19 -95 14 0 38 29 80 96 l60 97 3 -84 c2 -67 6 -84 18 -84 9
0 16 11 18 28 4 35 23 34 50 -3 13 -16 29 -30 37 -30 19 0 19 5 -2 36 -13 21
-14 30 -5 45 32 51 -2 99 -70 99 -21 0 -38 3 -38 6 0 4 9 22 21 40 32 53 23
68 -43 74 l-56 5 29 74 c23 57 27 76 18 87 -15 18 -152 20 -167 2z m276 -327
c23 -14 10 -46 -21 -49 -24 -3 -27 0 -27 27 0 32 19 41 48 22z"/>
<path d="M147 253 c-15 -14 -6 -23 23 -23 l30 0 0 -76 c0 -66 2 -75 18 -72 14
3 18 16 20 76 3 69 4 72 27 72 16 0 25 6 25 15 0 12 -14 15 -68 15 -38 0 -72
-3 -75 -7z"/>
<path d="M500 245 c0 -8 7 -15 15 -15 8 0 15 7 15 15 0 8 -7 15 -15 15 -8 0
-15 -7 -15 -15z"/>
<path d="M1450 212 c-50 -16 -66 -76 -30 -112 41 -41 110 -10 110 48 0 40 -44
76 -80 64z m46 -54 c9 -29 -20 -57 -44 -42 -23 15 -26 38 -7 57 19 19 42 12
51 -15z"/>
<path d="M272 147 c2 -49 6 -62 21 -65 14 -3 17 4 17 43 0 38 4 48 20 52 36
10 23 31 -20 31 l-41 1 3 -62z"/>
<path d="M370 200 c-16 -10 -12 -12 34 -14 44 -2 46 -26 2 -26 -47 0 -64 -28
-37 -62 17 -21 22 -22 50 -11 17 6 31 7 31 2 0 -5 7 -9 16 -9 14 0 16 9 12 50
-3 27 -11 56 -18 65 -14 17 -67 20 -90 5z m68 -72 c-7 -20 -48 -23 -48 -4 0
11 9 16 26 16 16 0 24 -5 22 -12z"/>
<path d="M500 145 c0 -51 3 -65 15 -65 12 0 15 14 15 65 0 51 -3 65 -15 65
-12 0 -15 -14 -15 -65z"/>
<path d="M560 144 c0 -49 3 -64 14 -64 11 0 16 14 18 48 3 40 6 47 25 50 20 3
22 -2 25 -45 2 -35 7 -48 18 -48 19 0 26 75 10 104 -8 17 -20 20 -60 20 l-50
-2 0 -63z"/>
<path d="M704 185 c-33 -50 18 -119 73 -99 42 15 40 34 -3 31 -22 -1 -39 3
-41 11 -3 8 10 12 47 12 49 0 51 1 44 23 -11 37 -25 47 -65 47 -30 0 -42 -5
-55 -25z m84 -12 c2 -9 -7 -13 -27 -13 -30 0 -39 9 -24 24 11 10 46 3 51 -11z"/>
<path d="M842 148 c2 -48 7 -63 18 -63 11 0 16 13 18 44 3 33 8 44 23 48 21 6
26 33 6 33 -7 0 -18 -5 -25 -12 -9 -9 -12 -9 -12 0 0 7 -7 12 -15 12 -13 0
-15 -11 -13 -62z"/>
<path d="M1275 196 c-27 -19 -24 -74 4 -98 31 -25 57 -23 86 7 29 28 31 51 9
83 -18 26 -69 30 -99 8z m73 -50 c-2 -26 -7 -31 -28 -31 -31 0 -41 42 -15 61
27 20 47 6 43 -30z"/>
<path d="M1550 144 c0 -49 3 -64 14 -64 11 0 16 14 18 48 3 40 6 47 25 50 20
3 22 -2 25 -45 2 -35 7 -48 18 -48 11 0 16 13 18 48 3 38 7 47 22 47 15 0 19
-9 22 -47 2 -35 7 -48 18 -48 19 0 27 90 9 111 -13 16 -55 19 -64 4 -5 -8 -11
-8 -19 -1 -7 6 -33 10 -59 9 l-47 -1 0 -63z"/>
</g>
</svg>
